<?xml version="1.0" encoding="iso-8859-1"?>
<!-- Generator: Adobe Illustrator 18.0.0, SVG Export Plug-In . SVG Version: 6.00 Build 0)  -->
<!DOCTYPE svg PUBLIC "-//W3C//DTD SVG 1.1//EN" "http://www.w3.org/Graphics/SVG/1.1/DTD/svg11.dtd">
<svg version="1.1" id="Capa_1" xmlns="http://www.w3.org/2000/svg" xmlns:xlink="http://www.w3.org/1999/xlink" x="0px" y="0px"
	 viewBox="0 0 490.7 490.7" style="enable-background:new 0 0 490.7 490.7;" xml:space="preserve">
<path id="XMLID_33_" d="M488.559,241.324l-121.547-81.902c-1.487-0.999-3.405-1.102-4.993-0.257
	c-1.582,0.839-2.572,2.493-2.572,4.283v38.958H131.254v-38.958c0-1.79-0.99-3.444-2.572-4.283c-1.591-0.846-3.508-0.743-4.994,0.257
	L2.14,241.324C0.798,242.227,0,243.737,0,245.35c0,1.612,0.798,3.123,2.14,4.025l121.549,81.903
	c1.486,0.999,3.403,1.103,4.994,0.257c1.582-0.84,2.572-2.493,2.572-4.283V286.25h228.192v41.003c0,1.79,0.99,3.443,2.572,4.283
	c1.588,0.846,3.506,0.742,4.993-0.257l121.547-81.903c1.343-0.902,2.142-2.413,2.142-4.025
	C490.7,243.737,489.902,242.227,488.559,241.324z"/>
<g>
</g>
<g>
</g>
<g>
</g>
<g>
</g>
<g>
</g>
<g>
</g>
<g>
</g>
<g>
</g>
<g>
</g>
<g>
</g>
<g>
</g>
<g>
</g>
<g>
</g>
<g>
</g>
<g>
</g>
</svg>
